<svg width="24" height="24" viewBox="0 0 24 24" fill="none" xmlns="http://www.w3.org/2000/svg">
<path fill-rule="evenodd" clip-rule="evenodd" d="M12 22.5C14.7848 22.5 17.4555 21.3938 19.4246 19.4246C21.3938 17.4555 22.5 14.7848 22.5 12C22.5 9.21523 21.3938 6.54451 19.4246 4.57538C17.4555 2.60625 14.7848 1.5 12 1.5C9.21523 1.5 6.54451 2.60625 4.57538 4.57538C2.60625 6.54451 1.5 9.21523 1.5 12C1.5 14.7848 2.60625 17.4555 4.57538 19.4246C6.54451 21.3938 9.21523 22.5 12 22.5ZM12 24C15.1826 24 18.2348 22.7357 20.4853 20.4853C22.7357 18.2348 24 15.1826 24 12C24 8.8174 22.7357 5.76516 20.4853 3.51472C18.2348 1.26428 15.1826 0 12 0C8.8174 0 5.76516 1.26428 3.51472 3.51472C1.26428 5.76516 0 8.8174 0 12C0 15.1826 1.26428 18.2348 3.51472 20.4853C5.76516 22.7357 8.8174 24 12 24Z" fill="black"/>
<path fill-rule="evenodd" clip-rule="evenodd" d="M6.96901 11.469C7.03868 11.3992 7.12144 11.3437 7.21256 11.3059C7.30368 11.2681 7.40136 11.2487 7.50001 11.2487C7.59866 11.2487 7.69635 11.2681 7.78746 11.3059C7.87858 11.3437 7.96134 11.3992 8.03101 11.469L12 15.4395L15.969 11.469C16.1098 11.3282 16.3008 11.249 16.5 11.249C16.6992 11.249 16.8902 11.3282 17.031 11.469C17.1718 11.6098 17.251 11.8008 17.251 12C17.251 12.1992 17.1718 12.3902 17.031 12.531L12.531 17.031C12.4613 17.1008 12.3786 17.1563 12.2875 17.1941C12.1963 17.2319 12.0987 17.2513 12 17.2513C11.9014 17.2513 11.8037 17.2319 11.7126 17.1941C11.6214 17.1563 11.5387 17.1008 11.469 17.031L6.96901 12.531C6.89917 12.4613 6.84375 12.3786 6.80594 12.2874C6.76813 12.1963 6.74867 12.0986 6.74867 12C6.74867 11.9013 6.76813 11.8037 6.80594 11.7125C6.84375 11.6214 6.89917 11.5387 6.96901 11.469Z" fill="black"/>
<path fill-rule="evenodd" clip-rule="evenodd" d="M12 6.75C12.1989 6.75 12.3897 6.82902 12.5303 6.96967C12.671 7.11032 12.75 7.30109 12.75 7.5V15C12.75 15.1989 12.671 15.3897 12.5303 15.5303C12.3897 15.671 12.1989 15.75 12 15.75C11.8011 15.75 11.6103 15.671 11.4697 15.5303C11.329 15.3897 11.25 15.1989 11.25 15V7.5C11.25 7.30109 11.329 7.11032 11.4697 6.96967C11.6103 6.82902 11.8011 6.75 12 6.75Z" fill="black"/>
</svg>
