<svg  viewBox="0 0 435 408" fill="none" xmlns="http://www.w3.org/2000/svg">
<path opacity="0.2" d="M326.056 376.802C355.352 354.819 372.93 319.695 388.47 281.942C404.01 244.428 417.512 204.525 413.182 163.427C408.596 122.329 385.923 80.0367 350.003 61.1603C313.828 42.045 263.896 46.3459 229.759 66.4171C195.367 86.2492 176.515 121.851 138.047 140.25C99.5796 158.41 41.7505 159.365 25.701 179.436C9.39677 199.269 35.1269 238.216 59.3285 268.323C83.5301 298.429 105.948 319.695 131.679 342.872C157.154 366.05 185.686 390.9 220.588 399.024C255.489 407.387 296.504 398.785 326.056 376.802Z" fill="#9B51E0"/>
<path d="M51.7185 285.827L75.3921 246.289L108.34 263.373L98.0896 288.755L141.044 325.12L115.906 365.634C115.906 365.634 56.5996 316.09 51.7185 308.524C46.8373 300.958 51.7185 285.827 51.7185 285.827Z" fill="#F3CCA7" stroke="black" stroke-width="0.488117"/>
<path d="M306.217 170.143C235.635 142.714 181.259 138.903 127.322 175.024C73.385 211.145 131.959 366.854 131.959 366.854H315.735C315.735 366.854 376.799 197.571 306.217 170.143Z" fill="#828282" stroke="black" stroke-width="0.488117"/>
<path d="M65.3857 246.045C61.7247 236.771 119.203 181.858 119.203 181.858V227.496L119.203 258.492C119.203 258.492 123.967 275.731 112.771 272.644C101.576 269.558 69.0467 255.319 65.3857 246.045Z" fill="#828282" stroke="black" stroke-width="0.488117"/>
<path d="M391.231 286.315L367.557 246.777L334.609 263.861L344.86 289.243L301.906 325.608L327.044 366.122C327.044 366.122 386.35 316.578 391.231 309.012C396.112 301.446 391.231 286.315 391.231 286.315Z" fill="#F3CCA7" stroke="black" stroke-width="0.488117"/>
<path d="M377.564 246.533C381.225 237.259 323.747 182.346 323.747 182.346V227.985L323.747 261.421C323.747 261.421 318.983 276.219 330.178 273.133C341.374 270.046 373.903 255.807 377.564 246.533Z" fill="#828282" stroke="black" stroke-width="0.488117"/>
<rect x="89.3306" y="376.457" width="252.356" height="7.80987" rx="1.70841" fill="#C4C4C4" stroke="black" stroke-width="0.488117"/>
<rect x="89.3306" y="223.189" width="252.356" height="154.245" rx="3.66088" fill="#C4C4C4" stroke="black" stroke-width="0.488117"/>
<circle cx="215.509" cy="299.091" r="16.84" fill="#C4C4C4" stroke="black" stroke-width="0.488117"/>
<path d="M206.723 291.045C206.723 291.045 206.723 289.093 208.675 288.849C210.628 288.605 212.3 293.568 214.533 296.659C218.108 301.609 225.027 302.516 224.539 307.397C224.42 308.586 222.587 309.35 222.587 309.35C216.534 311.447 211.335 305.659 208.675 299.832C207.216 296.634 206.723 291.045 206.723 291.045Z" fill="#F6F89F" stroke="black" stroke-width="0.488117"/>
<rect x="111.784" y="378.898" width="1.46435" height="3.90494" fill="black" stroke="black" stroke-width="0.488117"/>
<rect x="141.071" y="378.898" width="1.46435" height="3.90494" fill="black" stroke="black" stroke-width="0.488117"/>
<rect x="138.63" y="378.898" width="1.46435" height="3.90494" fill="black" stroke="black" stroke-width="0.488117"/>
<rect x="136.19" y="378.898" width="1.46435" height="3.90494" fill="black" stroke="black" stroke-width="0.488117"/>
<rect x="133.749" y="378.898" width="1.46435" height="3.90494" fill="black" stroke="black" stroke-width="0.488117"/>
<rect x="131.309" y="378.898" width="1.46435" height="3.90494" fill="black" stroke="black" stroke-width="0.488117"/>
<rect x="128.868" y="378.898" width="1.46435" height="3.90494" fill="black" stroke="black" stroke-width="0.488117"/>
<rect x="126.428" y="378.898" width="1.46435" height="3.90494" fill="black" stroke="black" stroke-width="0.488117"/>
<rect x="123.987" y="378.898" width="1.46435" height="3.90494" fill="black" stroke="black" stroke-width="0.488117"/>
<rect x="121.546" y="378.898" width="1.46435" height="3.90494" fill="black" stroke="black" stroke-width="0.488117"/>
<rect x="119.106" y="378.898" width="1.46435" height="3.90494" fill="black" stroke="black" stroke-width="0.488117"/>
<rect x="116.665" y="378.898" width="1.46435" height="3.90494" fill="black" stroke="black" stroke-width="0.488117"/>
<rect x="114.225" y="378.898" width="1.46435" height="3.90494" fill="black" stroke="black" stroke-width="0.488117"/>
<circle cx="332.413" cy="380.85" r="1.70841" fill="#C4C4C4" stroke="black" stroke-width="0.976234"/>
<path d="M257.569 101.099C257.569 110.905 265.047 118.854 274.271 118.854C283.496 118.854 283.599 121.222 288.489 105.044C293.38 88.867 283.496 83.343 274.271 83.343C265.047 83.343 257.569 91.2925 257.569 101.099Z" fill="#F3CCA7"/>
<path d="M173.613 101.099C173.613 110.905 166.135 118.854 156.91 118.854C147.685 118.854 147.582 121.222 142.692 105.044C137.802 88.867 147.685 83.343 156.91 83.343C166.135 83.343 173.613 91.2925 173.613 101.099Z" fill="#F3CCA7"/>
<path d="M175.349 36.2712C189.755 22.5547 231.579 15.7427 252.956 36.2712C291.152 72.9518 269.686 156.266 263.877 165.797C258.068 175.328 231.973 194.146 211.829 194.146C191.684 194.146 166.519 174.595 162.801 165.797C159.084 156.999 137.004 72.7803 175.349 36.2712Z" fill="#F3CCA7"/>
<path d="M216.079 97.9866C216.079 97.9866 216.079 111.166 219.984 119.952C223.889 128.738 213.638 128.25 213.638 128.25" stroke="black" stroke-width="0.488117"/>
<path d="M202.9 99.695C202.9 105.087 192.318 105.552 186.792 105.552C181.265 105.552 174.589 105.087 174.589 99.695C174.589 94.3034 181.265 94.0817 186.792 94.0817C192.318 94.0817 202.9 94.3034 202.9 99.695Z" fill="#462F14"/>
<path d="M202.9 100.671C202.9 106.063 192.318 106.529 186.792 106.529C181.265 106.529 174.589 106.063 174.589 100.671C174.589 95.2796 181.265 95.0579 186.792 95.0579C192.318 95.0579 202.9 95.2796 202.9 100.671Z" fill="#FDFBFB"/>
<circle cx="190.941" cy="100.183" r="3.66088" fill="#181313"/>
<path d="M202.9 99.695C202.9 105.087 192.318 105.552 186.792 105.552C181.265 105.552 174.589 105.087 174.589 99.695C174.589 94.3034 181.265 94.0817 186.792 94.0817C192.318 94.0817 202.9 94.3034 202.9 99.695Z" fill="#462F14"/>
<path d="M202.9 100.671C202.9 106.063 192.318 106.529 186.792 106.529C181.265 106.529 174.589 106.063 174.589 100.671C174.589 95.2796 181.265 95.0579 186.792 95.0579C192.318 95.0579 202.9 95.2796 202.9 100.671Z" fill="#FDFBFB"/>
<circle cx="190.941" cy="100.183" r="3.66088" fill="#181313"/>
<path d="M227.305 99.695C227.305 105.087 237.887 105.552 243.413 105.552C248.94 105.552 255.616 105.087 255.616 99.695C255.616 94.3034 248.94 94.0817 243.413 94.0817C237.887 94.0817 227.305 94.3034 227.305 99.695Z" fill="#462F14"/>
<path d="M227.305 100.671C227.305 106.063 237.887 106.529 243.413 106.529C248.94 106.529 255.616 106.063 255.616 100.671C255.616 95.2796 248.94 95.0579 243.413 95.0579C237.887 95.0579 227.305 95.2796 227.305 100.671Z" fill="#FDFBFB"/>
<circle cx="239.264" cy="100.183" r="3.66088" fill="#181313"/>
<path d="M197.53 83.1481C201.656 83.2041 208.025 84.3684 208.025 84.3684C208.025 84.3684 206.817 79.7665 204.608 78.0229C201.951 75.9262 199.449 76.6507 196.066 76.5585C186.12 76.2877 172.636 86.5649 172.636 86.5649L173.857 88.5174C173.857 88.5174 188.051 83.0195 197.53 83.1481Z" fill="#030303" stroke="black" stroke-width="0.488117"/>
<path d="M232.431 81.6838C228.305 81.7397 221.936 82.9041 221.936 82.9041C221.936 82.9041 223.144 78.3021 225.353 76.5585C228.01 74.4618 230.512 75.1863 233.895 75.0942C243.841 74.8234 257.325 85.1006 257.325 85.1006L256.104 87.0531C256.104 87.0531 241.91 81.5552 232.431 81.6838Z" fill="#030303" stroke="black" stroke-width="0.488117"/>
<circle cx="150.671" cy="115.071" r="2.19653" fill="#C4C4C4" stroke="black" stroke-width="0.488117"/>
<circle cx="150.671" cy="115.071" r="1.22029" fill="#FCFBFB" stroke="black" stroke-width="0.488117"/>
<circle r="2.19653" transform="matrix(-1 0 0 1 280.022 115.559)" fill="#C4C4C4" stroke="black" stroke-width="0.488117"/>
<circle r="1.22029" transform="matrix(-1 0 0 1 280.022 115.559)" fill="#FCFBFB" stroke="black" stroke-width="0.488117"/>
<path d="M154.279 176.297C148.059 161.338 153.061 132.489 153.061 132.489L154.279 115.049L155.064 89.9327L161.166 95.546C161.166 95.546 158.237 116.535 161.392 126.541C164.548 136.548 174.974 144.691 178.649 140.586C180.043 139.028 181.054 138.754 182.548 137.264C185.943 133.879 189.09 134.673 194.245 133.942C202.583 132.76 207.238 131.451 215.691 131.451C224.143 131.451 228.842 132.555 237.136 133.942C241.35 134.647 244.458 135.329 248.102 137.264C250.615 138.599 250.715 139.24 253.22 140.586C258.58 143.466 266.559 133.863 269.02 126.541C271.48 119.22 267.087 93.8376 267.087 93.8376L273.677 88.2242L275.396 112.142C275.396 112.142 282.951 150.86 282.951 168.615C282.951 170.069 281.647 174.767 279.783 176.297C274.939 180.274 277.435 182.697 271.984 186.055C266.837 189.227 268.535 188.361 264.43 192.492C262.213 194.723 258.779 196.44 256.632 198.72C252.702 202.892 248.298 201.269 242.985 204.119C236.015 207.856 234.4 208.143 227.875 212.423C221.199 216.804 219.107 217.864 210.817 216.576C201.018 215.054 200.248 210.209 190.833 207.441C183.816 205.377 182.219 205.106 175.724 202.042C167.827 198.317 170.943 191.032 162.077 189.585C160.021 189.249 156.716 184.81 156.716 184.81C156.716 184.81 156.612 181.909 154.279 176.297Z" fill="black" stroke="black" stroke-width="0.488117"/>
<path d="M239.02 144.846L191.185 148.27C191.185 148.27 204.929 159.915 215.103 159.477C225.828 159.016 239.02 144.846 239.02 144.846Z" fill="white" stroke="black" stroke-width="0.488117"/>
<path d="M155.064 89.4445C155.064 89.4445 156.09 86.0277 154.135 85.0426C152.179 84.0575 151.201 85.5396 151.201 84.5498L151.201 84.5126C151.201 83.3823 151.2 75.8317 152.379 70.997C153.223 67.5395 153.006 65.7464 154.135 62.3725C154.906 60.0656 155.19 58.7175 156.09 56.4586C157.618 52.6241 158.644 50.4914 160.979 47.0948C162.831 44.4009 164.316 43.2396 166.356 40.6881C168.322 38.2307 169.15 36.6275 171.245 34.2813C174.003 31.1925 176.131 30.2414 179.714 28.1858C182.784 26.4247 184.118 24.6268 187.622 24.1783C189.8 23.8996 191.056 24.361 193.244 24.1783C197.052 23.8604 199.02 22.6602 202.777 21.9606C207.039 21.1671 209.451 20.7531 213.777 20.4821C217.588 20.2433 219.736 20.4821 223.554 20.4821C226.513 20.4821 228.176 20.3373 231.131 20.4821C235.744 20.708 238.488 20.4742 242.864 21.9606C246.792 23.2947 248.528 25.1097 252.153 27.1353C254.731 28.5763 256.436 28.9931 258.753 30.8315C262.503 33.8075 263.043 36.9808 266.086 40.6881C268.198 43.2619 269.568 44.2086 271.236 47.0948C273.289 50.6468 273.125 53.3814 274.641 57.1978C276.117 60.9136 275.921 62.2758 277.337 66.0149C278.643 69.4604 278.782 71.7792 279.285 75.4324C279.837 79.4357 280.266 83.3313 280.266 84.5634C280.266 86.1031 277.826 84.0546 275.629 83.8105C273.668 83.5926 273.921 87.9802 273.921 87.9802L267.087 93.3495L268.041 83.8105L261.686 75.4324C261.686 75.4324 260.707 71.0718 260.219 67.0544C259.78 63.4386 259.635 62.5494 259.975 58.9227C260.244 56.0485 258.786 52.6463 257.53 50.0518C256.148 47.1965 253.098 47.2914 249.953 47.0948C247.633 46.9498 246.775 48.0805 244.575 49.3126C241.251 51.1742 240.338 52.79 237.242 54.7337C232.309 57.8303 230.956 57.9829 225.265 59.1691C220.808 60.0981 218.309 59.9873 213.777 60.4012C208.548 60.8786 205.471 60.2565 200.333 59.1691C196.221 58.299 192.279 55.0167 188.355 53.5016C182.742 51.334 182.79 48.772 176.867 49.8054C173.628 50.3705 172.582 51.148 170.267 53.5016C167.646 56.1669 166.314 57.4526 165.623 61.1404C165.003 64.45 165.115 67.6623 164.645 70.997C164.022 75.4261 160.979 81.8392 160.979 81.8392L161.166 95.3019L155.064 89.4445Z" fill="#0B0000" stroke="black" stroke-width="0.488117"/>
<path d="M150.414 46.9137C143.835 57.334 142.861 76.704 142.861 76.704H147.734C147.734 76.704 148.472 57.2166 155.286 46.9137C158.387 42.2247 164.196 38.2718 168.975 34.97C182.399 25.6962 197.63 25.5517 212.662 25.4517C228.174 25.3484 238.174 25.3361 253.224 33.1973C261.478 37.5088 266.678 40.0231 272.227 46.9137C280.085 56.6704 280.267 76.704 280.267 76.704H284.896C284.896 76.704 285.445 54.9721 277.1 44.3419C270.428 35.843 269.039 34.97 259.033 29.1126C230.016 12.127 191.079 11.621 165.031 31.4828C158.293 36.6206 154.743 40.0561 150.414 46.9137Z" fill="black" stroke="#6D6D6D" stroke-width="0.488117"/>
<path d="M294.91 77.6801C290.191 77.192 280.413 76.1182 279.046 75.7277C279.046 75.7277 274.949 83.8034 273.677 89.3949C271.794 97.6661 273.085 102.654 273.677 111.116C274.288 119.856 276.849 133.325 276.849 133.325H289.052C289.052 133.325 295.708 125.757 298.082 119.902C301.919 110.441 300.773 103.891 299.303 93.788C298.363 87.3357 294.91 77.6801 294.91 77.6801Z" fill="#0A0909" stroke="#676767" stroke-width="0.488117"/>
<path d="M133.503 77.6801C138.221 77.192 148 76.1182 149.366 75.7277C149.366 75.7277 153.463 83.8034 154.736 89.3949C156.618 97.6661 155.327 102.654 154.736 111.116C154.125 119.856 151.563 133.325 151.563 133.325H139.36C139.36 133.325 132.704 125.757 130.33 119.902C126.494 110.441 127.639 103.891 129.11 93.788C130.049 87.3357 133.503 77.6801 133.503 77.6801Z" fill="#0A0909" stroke="#676767" stroke-width="0.488117"/>
<path d="M142.949 94.7621C143.519 87.4753 145.731 76.2221 145.731 76.2221L150.739 75.7277C150.739 75.7277 156.108 87.0582 157.137 94.7621C158.201 102.733 156.715 107.299 155.746 115.28C154.885 122.365 152.686 133.325 152.686 133.325H146.844C146.844 133.325 143.755 122.42 142.949 115.28C142.049 107.307 142.325 102.756 142.949 94.7621Z" fill="#3C3C3C" stroke="black" stroke-width="0.488117"/>
<path d="M286.261 94.7621C285.673 87.4753 283.389 76.2221 283.389 76.2221L278.22 75.7277C278.22 75.7277 272.677 87.0582 271.616 94.7621C270.518 102.733 272.051 107.299 273.052 115.28C273.94 122.365 276.21 133.325 276.21 133.325H282.241C282.241 133.325 285.429 122.42 286.261 115.28C287.19 107.307 286.906 102.756 286.261 94.7621Z" fill="#3C3C3C" stroke="black" stroke-width="0.488117"/>
<path d="M318.899 36.4333C318.738 36.3839 318.568 36.3729 318.403 36.4012C318.237 36.4294 318.08 36.4962 317.945 36.596C317.81 36.6959 317.7 36.8261 317.625 36.9761C317.549 37.1262 317.509 37.2919 317.509 37.4599V58.733C316.337 57.6078 314.808 56.9272 313.187 56.8085C311.566 56.6897 309.954 57.1404 308.63 58.0827C307.306 59.025 306.352 60.3999 305.933 61.9702C305.514 63.5406 305.656 65.2079 306.335 66.6847C307.013 68.1615 308.186 69.3552 309.651 70.0598C311.115 70.7645 312.78 70.9359 314.358 70.5447C315.935 70.1534 317.327 69.2239 318.292 67.9164C319.258 66.609 319.737 65.0056 319.646 63.3828C319.653 63.333 319.657 63.2828 319.657 63.2325V47.5048L332.228 51.3707C332.388 51.42 332.558 51.4311 332.723 51.4029C332.889 51.3748 333.046 51.3082 333.181 51.2086C333.316 51.109 333.426 50.9791 333.502 50.8293C333.577 50.6796 333.617 50.5141 333.617 50.3462V44.9275C333.618 43.779 333.249 42.6607 332.567 41.7368C331.885 40.8129 330.924 40.1322 329.827 39.7945L318.899 36.4333Z" fill="black"/>
<path d="M363.49 69.0191V82.598C362.467 82.007 361.276 81.7703 360.105 81.9246C358.933 82.0789 357.845 82.6155 357.009 83.4513C356.173 84.2871 355.636 85.3753 355.482 86.5472C355.328 87.719 355.565 88.9091 356.156 89.9327C356.747 90.9563 357.659 91.7563 358.751 92.2086C359.843 92.6609 361.054 92.7402 362.195 92.4343C363.337 92.1283 364.346 91.4542 365.065 90.5165C365.785 89.5787 366.175 88.4298 366.175 87.2478V60.2027C366.175 59.8581 366.093 59.5185 365.934 59.2125C365.776 58.9065 365.546 58.6431 365.264 58.4446C364.982 58.2461 364.657 58.1183 364.316 58.072C363.974 58.0257 363.627 58.0622 363.302 58.1785L346.12 64.3156C345.704 64.4649 345.344 64.7393 345.089 65.1011C344.834 65.463 344.698 65.8947 344.698 66.3371V85.28C343.674 84.6891 342.484 84.4523 341.312 84.6065C340.141 84.7607 339.053 85.2972 338.217 86.1328C337.381 86.9684 336.844 88.0564 336.69 89.2281C336.535 90.3999 336.772 91.5898 337.362 92.6135C337.953 93.6371 338.865 94.4373 339.957 94.8899C341.049 95.3425 342.259 95.4222 343.401 95.1167C344.542 94.8113 345.551 94.1376 346.271 93.2003C346.991 92.263 347.382 91.1143 347.382 89.9325V74.7723L363.49 69.0218V69.0191Z" fill="black"/>
</svg>
