<svg width="61" height="61" viewBox="0 0 61 61" fill="none" xmlns="http://www.w3.org/2000/svg">
<rect width="61" height="61" rx="8" fill="#25303B"/>
<path d="M32.7162 47.6537C32.7162 48.1179 31.7104 48.4584 29.6986 48.675C27.7178 48.8917 25.8299 49 24.0348 49C22.2397 49 21.0791 48.8917 20.5529 48.675C20.0268 48.4584 19.7637 48.1179 19.7637 47.6537V18.2204C19.7637 17.4157 20.1661 16.8431 20.9708 16.5027C21.7755 16.1622 23.292 15.992 25.5204 15.992H42.744C43.3939 15.992 43.7189 17.1681 43.7189 19.5203C43.7189 21.8415 43.5642 23.6211 43.2547 24.8591C42.9761 26.0662 42.6047 26.6697 42.1405 26.6697L32.7162 26.2054V29.3623C36.8326 29.1766 39.5871 29.0838 40.9798 29.0838C41.4441 29.0838 41.7536 29.3314 41.9083 29.8266C42.094 30.3218 42.1869 31.2812 42.1869 32.7049C42.1869 34.0976 42.0321 35.444 41.7226 36.7439C41.4131 38.0128 40.9798 38.6473 40.4228 38.6473L32.7162 38.3687V47.6537Z" fill="white"/>
</svg>
